<svg xmlns="http://www.w3.org/2000/svg" version="1.1" xmlnsXlink="http://www.w3.org/1999/xlink" xmlnssvgjs="http://svgjs.dev/svgjs" width="200" height="70" viewBox="0 0 1000 623">
  <g transform="matrix(1,0,0,1,-0.6060604403929233,0.2522267206477409)"><svg viewBox="0 0 396 247" data-background-color="#ffffff" preserveAspectRatio="xMidYMid meet" height="623" width="1000" xmlns="http://www.w3.org/2000/svg" xmlnsXlink="http://www.w3.org/1999/xlink">
      <g id="tight-bounds" transform="matrix(1,0,0,1,0.2400000656044199,-0.09999999999999432)"><svg viewBox="0 0 395.52 247.2" height="247.2" width="395.52">
          <g><svg></svg></g>
          <g><svg viewBox="0 0 395.52 247.2" height="247.2" width="395.52">
              <g>
                <g>
                  <path xmlns="http://www.w3.org/2000/svg" d="M1.012 25.749h51.582l17.629 67.449-31.492 0-1.826-6.289 0.275 6.289-36.168 0zM89.587 167.282l3.45-13.28h29.439l-19.622 67.449h-26.864l-19.594-67.449 29.72 0zM126.36 25.749h51.637l0 67.449-36.282 0 0.28-6.289-1.83 6.289-31.329 0zM177.997 221.451h-39.636v-52.958l0.646-14.491h38.99zM40.483 168.493v52.958h-39.471l0-67.449h38.835zM313.86 25.749l12.62 67.449-58.416 0 12.601-67.449zM355.423 25.749h39.085l-11.991 67.449-37.269 0zM359.716 221.451h-39.635l-13.361-67.449 64.987 0zM274.61 221.451h-39.746l-12.048-67.449 65.026 0zM199.907 25.749h39.361l10.123 67.449-37.436 0z" fill="#000000" fill-rule="nonzero" stroke="none" stroke-width="1" stroke-linecap="butt" stroke-linejoin="miter" stroke-miterlimit="10" stroke-dasharray="" stroke-dashoffset="0" font-family="none" font-weight="none" font-size="none" text-anchor="none" style="mix-blend-mode: normal" data-fill-palette-color="tertiary"></path>
                </g>
              </g>
              <g transform="matrix(1,0,0,1,0,100.06599623946138)"><svg viewBox="0 0 395.52 47.06800752107721" height="47.06800752107721" width="395.52">
                  <g><svg viewBox="0 0 395.52 47.06800752107721" height="47.06800752107721" width="395.52">
                      <g><svg viewBox="0 0 395.52 47.06800752107721" height="47.06800752107721" width="395.52">
                          <g><svg viewBox="0 0 395.52 47.06800752107721" height="47.06800752107721" width="395.52">
                              <g id="textblocktransform"><svg viewBox="0 0 395.52 47.06800752107721" height="47.06800752107721" width="395.52" id="textblock">
                                  <g><svg viewBox="0 0 395.52 47.06800752107721" height="47.06800752107721" width="395.52">
                                      <g transform="matrix(1,0,0,1,0,0)"><svg width="395.52" viewBox="2.8600001335144043 -37.5 402.4700012207031 47.900001525878906" height="47.06800752107721" data-palette-color="#111111">
                                          <path d="M2.86-35.55L12.23-35.55 18.95-9.84 25.63-35.55 35.01-35.55 35.01 0 27.81 0 27.81-9.62 28.47-24.44 21.36 0 16.48 0 9.38-24.44 10.03-9.62 10.03 0 2.86 0 2.86-35.55ZM59.93 0L52.98 0Q52.68-0.61 52.39-2.05L52.39-2.05Q50.53 0.49 47.36 0.49L47.36 0.49Q44.04 0.49 41.86-1.71 39.67-3.91 39.67-7.4L39.67-7.4Q39.67-11.55 42.32-13.82 44.97-16.09 49.95-16.14L49.95-16.14 52.05-16.14 52.05-18.26Q52.05-20.04 51.44-20.78 50.83-21.51 49.66-21.51L49.66-21.51Q47.07-21.51 47.07-18.48L47.07-18.48 40.16-18.48Q40.16-22.14 42.91-24.52 45.65-26.9 49.85-26.9L49.85-26.9Q54.2-26.9 56.58-24.65 58.96-22.39 58.96-18.19L58.96-18.19 58.96-5.76Q59.01-2.34 59.93-0.42L59.93-0.42 59.93 0ZM48.9-4.93L48.9-4.93Q50.05-4.93 50.85-5.4 51.66-5.86 52.05-6.49L52.05-6.49 52.05-11.99 50.39-11.99Q48.63-11.99 47.62-10.86 46.6-9.74 46.6-7.86L46.6-7.86Q46.6-4.93 48.9-4.93ZM84.54-14.4L84.54-12.38Q84.54-6.15 82.4-2.83 80.27 0.49 76.04 0.49L76.04 0.49Q72.82 0.49 70.87-2.12L70.87-2.12 70.87 10.16 63.96 10.16 63.96-26.42 70.36-26.42 70.6-24Q72.58-26.9 76-26.9L76-26.9Q80.22-26.9 82.36-23.83 84.49-20.75 84.54-14.4L84.54-14.4ZM77.66-12.38L77.66-14.11Q77.66-17.94 76.81-19.53 75.97-21.12 73.97-21.12L73.97-21.12Q71.85-21.12 70.87-19.34L70.87-19.34 70.87-6.96Q71.8-5.25 74.02-5.25L74.02-5.25Q76.07-5.25 76.86-6.98 77.66-8.72 77.66-12.38L77.66-12.38ZM109.29-14.4L109.29-12.38Q109.29-6.15 107.16-2.83 105.02 0.49 100.8 0.49L100.8 0.49Q97.58 0.49 95.62-2.12L95.62-2.12 95.62 10.16 88.71 10.16 88.71-26.42 95.11-26.42 95.35-24Q97.33-26.9 100.75-26.9L100.75-26.9Q104.97-26.9 107.11-23.83 109.25-20.75 109.29-14.4L109.29-14.4ZM102.41-12.38L102.41-14.11Q102.41-17.94 101.57-19.53 100.72-21.12 98.72-21.12L98.72-21.12Q96.6-21.12 95.62-19.34L95.62-19.34 95.62-6.96Q96.55-5.25 98.77-5.25L98.77-5.25Q100.82-5.25 101.62-6.98 102.41-8.72 102.41-12.38L102.41-12.38ZM120.72-26.42L120.72 0 113.78 0 113.78-26.42 120.72-26.42ZM113.47-33.25L113.47-33.25Q113.47-34.86 114.49-35.89 115.52-36.91 117.23-36.91 118.94-36.91 119.96-35.89 120.99-34.86 120.99-33.25L120.99-33.25Q120.99-31.67 119.97-30.62 118.96-29.57 117.23-29.57 115.49-29.57 114.48-30.62 113.47-31.67 113.47-33.25ZM125.89-26.42L132.38-26.42 132.58-23.8Q134.92-26.9 138.71-26.9L138.71-26.9Q145.52-26.9 145.72-17.36L145.72-17.36 145.72 0 138.78 0 138.78-16.85Q138.78-19.09 138.11-20.1 137.44-21.12 135.75-21.12L135.75-21.12Q133.87-21.12 132.82-19.19L132.82-19.19 132.82 0 125.89 0 125.89-26.42ZM149.84-12.06L149.84-14.01Q149.84-20.51 152.18-23.71 154.53-26.9 158.75-26.9L158.75-26.9Q162.34-26.9 164.29-24.07L164.29-24.07 164.56-26.42 170.79-26.42 170.79 0Q170.79 5.05 167.95 7.73 165.12 10.4 159.82 10.4L159.82 10.4Q157.65 10.4 155.26 9.53 152.87 8.67 151.69 7.32L151.69 7.32 154.01 2.54Q154.99 3.56 156.55 4.21 158.11 4.86 159.51 4.86L159.51 4.86Q161.83 4.86 162.84 3.75 163.85 2.64 163.88 0.17L163.88 0.17 163.88-2.1Q161.9 0.49 158.73 0.49L158.73 0.49Q154.5 0.49 152.19-2.8 149.89-6.08 149.84-12.06L149.84-12.06ZM156.75-14.01L156.75-12.28Q156.75-8.62 157.7-6.95 158.65-5.27 160.73-5.27L160.73-5.27Q162.85-5.27 163.88-6.81L163.88-6.81 163.88-19.43Q162.8-21.12 160.78-21.12L160.78-21.12Q158.73-21.12 157.74-19.43 156.75-17.75 156.75-14.01L156.75-14.01ZM206.6-35.55L210.77-13.21 214.14-35.55 221.24-35.55 214.92 0 207.72 0 203.57-20.95 199.47 0 192.24 0 185.89-35.55 193.05-35.55 196.39-13.23 200.57-35.55 206.6-35.55ZM223.22-12.38L223.22-14.06Q223.22-20.07 226.05-23.49 228.88-26.9 233.89-26.9L233.89-26.9Q238.94-26.9 241.77-23.49 244.61-20.07 244.61-14.01L244.61-14.01 244.61-12.33Q244.61-6.3 241.8-2.91 238.99 0.49 233.94 0.49L233.94 0.49Q228.86 0.49 226.04-2.92 223.22-6.32 223.22-12.38L223.22-12.38ZM230.15-14.06L230.15-12.33Q230.15-5.25 233.94-5.25L233.94-5.25Q237.43-5.25 237.7-11.16L237.7-11.16 237.72-14.06Q237.72-17.68 236.72-19.42 235.72-21.17 233.89-21.17L233.89-21.17Q232.13-21.17 231.14-19.42 230.15-17.68 230.15-14.06L230.15-14.06ZM262.01-26.59L261.94-19.75 259.64-19.95Q256.81-19.95 255.81-17.46L255.81-17.46 255.81 0 248.88 0 248.88-26.42 255.39-26.42 255.59-23.56Q257.23-26.9 260.11-26.9L260.11-26.9Q261.28-26.9 262.01-26.59L262.01-26.59ZM279.07 0L274.24-10.18 272.38-8.11 272.38 0 265.48 0 265.48-37.5 272.38-37.5 272.38-17.24 273.24-18.51 278.02-26.42 286.25-26.42 278.59-15.53 286.98 0 279.07 0ZM310-14.38L310-12.35Q310-5.93 307.95-2.72 305.9 0.49 301.51 0.49L301.51 0.49Q298.07 0.49 295.99-2.61L295.99-2.61 295.77 0 289.4 0 289.4-37.5 296.31-37.5 296.31-24.27Q298.26-26.9 301.46-26.9L301.46-26.9Q305.85-26.9 307.9-23.72 309.96-20.53 310-14.38L310-14.38ZM303.1-11.57L303.1-14.09Q303.1-18.26 302.29-19.69 301.48-21.12 299.48-21.12L299.48-21.12Q297.31-21.12 296.31-19.14L296.31-19.14 296.31-7.1Q297.24-5.25 299.53-5.25L299.53-5.25Q301.51-5.25 302.28-6.54 303.05-7.84 303.1-11.57L303.1-11.57ZM324.82 0.49L324.82 0.49Q319.5 0.49 316.52-2.69 313.54-5.86 313.54-11.77L313.54-11.77 313.54-13.87Q313.54-20.12 316.28-23.51 319.01-26.9 324.11-26.9L324.11-26.9Q329.09-26.9 331.61-23.72 334.12-20.53 334.17-14.28L334.17-14.28 334.17-10.89 320.43-10.89Q320.57-7.96 321.72-6.6 322.87-5.25 325.26-5.25L325.26-5.25Q328.73-5.25 331.05-7.62L331.05-7.62 333.76-3.44Q332.49-1.68 330.07-0.6 327.65 0.49 324.82 0.49ZM320.48-15.72L320.48-15.72 327.38-15.72 327.38-16.36Q327.34-18.73 326.6-19.95 325.87-21.17 324.06-21.17 322.26-21.17 321.44-19.87 320.62-18.58 320.48-15.72ZM337.9-26.42L344.4-26.42 344.59-23.8Q346.94-26.9 350.72-26.9L350.72-26.9Q357.53-26.9 357.73-17.36L357.73-17.36 357.73 0 350.8 0 350.8-16.85Q350.8-19.09 350.12-20.1 349.45-21.12 347.77-21.12L347.77-21.12Q345.89-21.12 344.84-19.19L344.84-19.19 344.84 0 337.9 0 337.9-26.42ZM372.23-5.25L372.23-5.25Q375.23-5.25 375.28-9.16L375.28-9.16 381.77-9.16Q381.73-4.83 379.11-2.17 376.5 0.49 372.37 0.49L372.37 0.49Q367.27 0.49 364.59-2.69 361.9-5.86 361.85-12.04L361.85-12.04 361.85-14.14Q361.85-20.36 364.5-23.63 367.15-26.9 372.33-26.9L372.33-26.9Q376.7-26.9 379.21-24.21 381.73-21.51 381.77-16.55L381.77-16.55 375.28-16.55Q375.26-18.77 374.55-19.97 373.84-21.17 372.2-21.17L372.2-21.17Q370.4-21.17 369.62-19.89 368.83-18.6 368.79-14.92L368.79-14.92 368.79-12.23Q368.79-9.01 369.1-7.73 369.42-6.45 370.15-5.85 370.89-5.25 372.23-5.25ZM392.42-37.5L392.42-24.1Q394.66-26.9 397.93-26.9L397.93-26.9Q401.55-26.9 403.43-24.37 405.31-21.83 405.33-16.8L405.33-16.8 405.33 0 398.4 0 398.4-16.72Q398.4-19.04 397.68-20.08 396.96-21.12 395.35-21.12L395.35-21.12Q393.47-21.12 392.42-19.38L392.42-19.38 392.42 0 385.51 0 385.51-37.5 392.42-37.5Z" opacity="1" transform="matrix(1,0,0,1,0,0)" fill="#000000" class="undefined-text-0" data-fill-palette-color="primary" id="text-0"></path>
                                        </svg></g>
                                    </svg></g>
                                </svg></g>
                            </svg></g>
                        </svg></g>
                    </svg></g>
                </svg></g>
            </svg></g>
          <defs></defs>
        </svg>
        <rect width="395.52" height="247.2" fill="none" stroke="none" visibility="hidden"></rect>
      </g>
    </svg></g>
</svg>